<svg width="16" height="16" viewBox="0 0 16 16" fill="none" xmlns="http://www.w3.org/2000/svg">
<path d="M8.5 1.5A1.5 1.5 0 0 0 7 0H2a2 2 0 0 0-2 2v12a2 2 0 0 0 2 2h12a2 2 0 0 0 2-2V2.5a1.5 1.5 0 0 0-1.5-1.5H14v1h1.5a.5.5 0 0 1 .5.5V14a1 1 0 0 1-1 1H2a1 1 0 0 1-1-1V2a1 1 0 0 1 1-1h5v1H2.5a.5.5 0 0 0-.5.5v11a.5.5 0 0 0 .5.5h11a.5.5 0 0 0 .5-.5V2.5a.5.5 0 0 0-.5-.5H8.5V1.5z"/>
<path d="M7.646 11.854a.5.5 0 0 0 .708 0l3-3a.5.5 0 0 0-.708-.708L8.5 10.293 6.354 8.146a.5.5 0 1 0-.708.708l2.5 2.5a.5.5 0 0 0 .708 0z"/>
</svg>

